<svg width="102" height="83" xmlns="http://www.w3.org/2000/svg" data-name="Lager 1">
 <g>
  <title>Layer 1</title>
  <path class="cls-1" d="m89.82576,50.80914a39.73,39.73 0 0 0 0,-18.61c8.7,-8.24 11.92,-14.51 9.54,-18.64c-2.62,-4.54 -10.88,-4 -20.91,-1a39.82,39.82 0 0 0 -54.91,0c-10,-3 -18.29,-3.52 -20.91,1c-2.38,4.13 0.83,10.4 9.54,18.64a39.74,39.74 0 0 0 0,18.57l-0.12,0.11c-8.62,8.2 -11.79,14.44 -9.42,18.53c1.3,2.26 4,3.38 8.05,3.38a46.6,46.6 0 0 0 12.7,-2.27l-0.09,-0.32a39.83,39.83 0 0 0 55.14,0.27a47.29,47.29 0 0 0 12.88,2.33c4,0 6.75,-1.13 8,-3.39c2.67,-4.54 -1.91,-11.42 -9.49,-18.6zm-23.37,-17.7c-2.68,-1.71 -5.33,-3.32 -7.85,-4.78c-0.92,-0.53 -1.87,-1.06 -2.84,-1.6a151.16,151.16 0 0 1 21.39,-9.12a35.33,35.33 0 0 1 8.79,29.73c-2.54,-2.17 -5.29,-4.34 -8.14,-6.45l5,-6.07l-16.35,-1.71zm29,-17.3c0.59,1 -0.31,4.71 -7.13,11.56a40.12,40.12 0 0 0 -6.5,-11.17c8,-2.09 12.74,-1.93 13.64,-0.39l-0.01,0zm-44.47,-9.75a35.27,35.27 0 0 1 22.52,8.1a182.54,182.54 0 0 0 -22.52,10a182.67,182.67 0 0 0 -22.53,-10a35.28,35.28 0 0 1 22.54,-8.1l-0.01,0zm-44.46,9.75c0.89,-1.54 5.66,-1.7 13.59,0.39a40.12,40.12 0 0 0 -6.47,11.21c-6.82,-6.88 -7.73,-10.55 -7.12,-11.6zm9,25.68a35.3,35.3 0 0 1 9.3,-23.88a151.16,151.16 0 0 1 21.39,9.12c-1,0.54 -1.92,1.07 -2.84,1.6c-2.7,1.56 -5.33,3.16 -7.88,4.77l-16.41,1.72l5,6.09c-2.9,2.14 -5.59,4.27 -8,6.37a35.62,35.62 0 0 1 -0.52,-5.79l-0.04,0zm-9,25.67c-0.58,-1 0.26,-4.66 7.12,-11.55a40,40 0 0 0 6.46,11.16c-9.41,2.5 -13,1.4 -13.58,0.39zm44.47,9.76a35.5,35.5 0 0 1 -33.77,-24.69c2.86,-2.56 6.12,-5.19 9.71,-7.84l6.47,7.91l4.92,-15.65c2.37,-1.49 4.81,-3 7.32,-4.42c1.82,-1.05 3.61,-2.05 5.35,-3q2.61,1.43 5.34,3c2.52,1.46 4.9,2.89 7.17,4.31l4.95,15.76l6.53,-8c3.81,2.8 7,5.45 9.78,7.89a35.5,35.5 0 0 1 -33.77,24.73zm44.47,-9.76c-0.61,1 -4.24,2.1 -13.59,-0.4a39.66,39.66 0 0 0 6.46,-11.16c5.78,5.81 8.02,10.02 7.13,11.56z" fill="#002d3c" id="svg_1"/>
 </g>

</svg>